<svg fill="#F9F8F8" width="420" height="512" xmlns="http://www.w3.org/2000/svg" xml:space="preserve" version="1.1">
 <title>can-of-worms</title>

 <g>
  <title>Layer 1</title>
  <g id="svg_2">
   <g id="svg_3">
    <path id="svg_4" d="m408.36207,160.34713c-11.947,-29.013 -34.133,-59.733 -62.293,-87.893c-62.293,-62.294 -129.707,-87.894 -157.013,-60.587c-28.16,27.307 -1.707,94.72 59.733,156.16c23.761,23.761 48.461,42.33 71.384,54.613l-116.527,0c-0.442,-21.816 -5.946,-55.889 -29.097,-82.773c-20.48,-24.747 -51.2,-36.693 -90.453,-36.693c-9.387,0 -41.813,1.707 -64.853,23.893c-7.68,7.68 -13.653,17.067 -17.067,28.16c-2.56,7.68 -0.853,16.213 4.267,23.04c4.267,5.973 11.947,10.24 20.48,10.24c11.093,0 20.48,-6.827 23.893,-17.92c0.853,-2.56 2.56,-5.12 4.267,-6.827c8.533,-7.68 23.893,-9.387 29.013,-9.387c23.893,0 41.813,5.973 52.053,19.627c12.958,14.322 16.102,35.177 16.407,48.64l-62.487,0c-12.8,0 -23.04,10.24 -23.04,23.04l0,28.16l0,187.733l0,28.16c0,12.8 10.24,23.04 23.04,23.04l295.253,0c12.8,0 23.04,-10.24 23.04,-23.04l0,-28.16l0,-187.733l0,-46.233c11.986,-13.974 12.241,-37.882 0,-67.26zm-147.626,-3.413c-57.174,-57.174 -77.654,-116.054 -60.587,-133.12c4.267,-4.267 10.24,-5.973 17.92,-5.973c26.453,0 71.68,22.187 116.053,67.413c26.453,26.453 46.933,55.467 58.027,81.92c9.387,23.04 10.24,41.813 1.707,50.347c-2.666,2.539 -6.226,4.24 -10.532,5.12l-16.136,0c-26.809,-4.096 -66.833,-26.088 -106.452,-65.707zm-216.747,-5.12c-4.267,3.413 -6.827,7.68 -8.533,12.8c-1.707,4.267 -5.12,6.827 -8.533,6.827c-2.56,0 -5.12,-1.707 -7.68,-3.413c-0.853,-0.853 -1.707,-3.413 -0.853,-6.827c2.56,-8.533 6.827,-15.36 12.8,-21.333c8.19,-8.19 18.165,-12.968 27.307,-15.754l0,18.204c-5.324,2.151 -10.494,5.195 -14.508,9.496zm31.573,-13.861l0,-17.245c3.959,-0.408 6.99,-0.468 8.533,-0.468c11.742,0 22.575,1.212 32.464,3.636l-5.496,16.478c-8.235,-2.003 -17.235,-3.047 -26.968,-3.047c-1.715,0 -4.77,0.143 -8.533,0.646zm51.612,8.038l5.569,-16.695c11.681,5.083 21.665,12.299 29.86,21.664c1.315,1.544 2.556,3.116 3.736,4.708l-10.991,14.648c-1.888,-2.858 -4.004,-5.629 -6.399,-8.263c-5.985,-6.688 -13.296,-12.047 -21.775,-16.062zm36.642,41.476l11.979,-15.965c8.566,18.094 10.941,37.038 11.554,51.138l-17.067,0c-0.503,-9.566 -1.901,-22.401 -6.466,-35.173zm-79.72,103.44l307.2,0l0,153.6l-307.2,0l0,-153.6zm308.053,198.827c0,3.413 -2.56,5.973 -5.973,5.973l-296.107,0c-3.413,0 -5.973,-2.56 -5.973,-5.12l0,-29.013l308.053,0l0,28.16zm-308.053,-215.894l0,-28.16c0,-3.413 2.56,-5.973 5.973,-5.973l62.293,0l51.2,0l188.587,0l0,34.133l-308.053,0z"/>
    <path id="svg_5" d="m237.69607,307.97413c-57.173,0 -102.4,26.453 -102.4,59.733s45.227,59.733 102.4,59.733s102.4,-26.453 102.4,-59.733s-45.227,-59.733 -102.4,-59.733zm0,102.4c-46.08,0 -85.333,-19.627 -85.333,-42.667c0,-23.04 39.253,-42.667 85.333,-42.667c46.08,0 85.333,19.627 85.333,42.667c0,23.04 -39.253,42.667 -85.333,42.667z"/>
    <path id="svg_6" d="m263.29607,359.17413l-51.2,0c-5.12,0 -8.533,3.413 -8.533,8.533s3.413,8.533 8.533,8.533l51.2,0c5.12,0 8.533,-3.413 8.533,-8.533s-3.413,-8.533 -8.533,-8.533z"/>
    <path id="svg_7" d="m321.32207,97.20013c-17.067,-16.213 -34.133,-29.867 -49.493,-38.4c-18.773,-11.093 -32.427,-11.947 -40.107,-4.267c-17.92,17.92 17.92,64 42.667,88.747c19.627,20.48 53.76,47.787 75.947,47.787c5.12,0 9.387,-1.707 13.653,-5.12c17.92,-17.92 -17.92,-64 -42.667,-88.747zm29.014,76.8c-4.267,1.707 -29.867,-7.68 -64.853,-42.667c-34.134,-34.986 -44.374,-60.586 -42.667,-64.853c0.853,0 0.853,0 1.707,0c7.68,0 32.427,11.093 63.147,42.667c34.132,34.987 44.372,60.587 42.666,64.853z"/>
   </g>
  </g>
  <g id="svg_8"/>
  <g id="svg_9"/>
  <g id="svg_10"/>
  <g id="svg_11"/>
  <g id="svg_12"/>
  <g id="svg_13"/>
  <g id="svg_14"/>
  <g id="svg_15"/>
  <g id="svg_16"/>
  <g id="svg_17"/>
  <g id="svg_18"/>
  <g id="svg_19"/>
  <g id="svg_20"/>
  <g id="svg_21"/>
  <g id="svg_22"/>
 </g>
</svg>