<svg width="96.99999999999999" height="98" xmlns="http://www.w3.org/2000/svg" xml:space="preserve" version="1.1">
 <title>crankbait</title>

 <g>
  <title>Layer 1</title>
  <g id="svg_38">
   <ellipse id="svg_39" fill="#353C47" ry="1.8" rx="1.8" cy="-138.73367" cx="767.02288" class="st0" transform="matrix(0.7071 -0.7071 0.7071 0.7071 -433.362 723.703)"/>
   <path id="svg_40" fill="#353C47" d="m94.48578,10.95c-1.8,-1.8 -4.2,-2.5 -6.6,-2.1c0.1,-0.4 0.1,-0.8 0.1,-1.2c0,-2 -0.8,-4 -2.2,-5.4c-3,-3 -7.8,-3 -10.8,0l-3.2,3.2c-0.5,0.5 -0.6,1.3 -0.2,1.9c0.4,0.6 1.1,0.8 1.8,0.6l3.3,-1.2c0.8,-0.3 1.2,-1.1 0.9,-1.9c-0.1,-0.2 -0.2,-0.4 -0.3,-0.5c1.8,-1.8 4.7,-1.7 6.5,0.1c0.9,0.9 1.4,2 1.4,3.3c0,1.2 -0.5,2.4 -1.4,3.3l-18.3,18.3c-1.7,-0.8 -3.8,-0.5 -5.2,0.9l0,0c-0.6,0.6 -1,1.3 -1.2,2.1c-1.4,-0.3 -2.9,0 -4.1,1c-2.3,1.8 -6.1,3.1 -9.4,4.3c-1.5,0.5 -2.8,1 -4.1,1.5l0,0c-5.2,2.2 -10.3,5.1 -15,8.8c-6.2,4.8 -11.1,9.4 -14.6,13.5c-7.2,8.4 -10.6,24.3 -11.8,30.7c-0.3,1.5 0.2,3.1 1.3,4.2l0.4,0.4c0.9,0.9 2.1,1.4 3.3,1.4c0.6,0 1.3,-0.1 1.9,-0.4c4.9,-2.1 17.2,-7.8 25.3,-14.6c4.9,-4.2 10.9,-10.4 14.6,-15.1c4,-5.2 7.7,-11.2 9.7,-16.1c1.2,-2.9 3.5,-5.6 7,-7.9c1.2,-0.8 2,-2.2 2.1,-3.6c0.1,-0.8 -0.1,-1.6 -0.4,-2.4c0.6,-0.2 1.1,-0.6 1.6,-1c1.5,-1.5 1.7,-3.6 0.8,-5.4l18.2,-18.2c1.8,-1.8 4.7,-1.8 6.5,0c0.9,0.9 1.4,2 1.4,3.3c0,1.2 -0.5,2.3 -1.3,3.2c-0.1,-0.1 -0.3,-0.3 -0.5,-0.3c-0.8,-0.3 -1.6,0.1 -1.9,0.9l-1.2,3.3c-0.2,0.7 0,1.4 0.6,1.8c0.6,0.4 1.4,0.3 1.9,-0.2l3.2,-3.2c1.4,-1.4 2.2,-3.4 2.2,-5.4s-0.9,-4.5 -2.3,-5.9zm-32.2,21.3c0.6,-0.6 1.7,-0.6 2.3,0c0.6,0.6 0.6,1.7 0,2.3c-0.5,0.5 -1.2,0.6 -1.8,0.4l-0.9,-0.9c-0.1,-0.2 -0.1,-0.4 -0.1,-0.6c0,-0.5 0.2,-0.9 0.5,-1.2zm-0.7,9c-3.9,2.7 -6.6,5.8 -8,9.2c-1.9,4.7 -5.4,10.4 -9.3,15.4c-3.6,4.6 -9.4,10.6 -14.1,14.7c-7.7,6.6 -19.7,12.1 -24.5,14.1c-0.6,0.3 -1.4,0.1 -1.9,-0.4l-0.4,-0.4c-0.4,-0.4 -0.6,-1 -0.5,-1.5c0.9,-4.8 4.2,-21.2 11.1,-29.3c3.3,-3.9 8.3,-8.4 14.2,-13.1c4.5,-3.5 9.3,-6.3 14.3,-8.4c0,0 0,0 0,0c1.1,-0.5 2.5,-0.9 3.9,-1.4c3.5,-1.2 7.6,-2.6 10.3,-4.7c0.4,-0.3 0.8,-0.4 1.2,-0.4c0.5,0 1,0.2 1.3,0.5l0.2,0.2c0.2,0.3 0.4,0.6 0.6,0.8c0.3,0.3 0.5,0.5 0.8,0.6l1,1c0.4,0.4 0.6,0.9 0.5,1.5c0.1,0.8 -0.2,1.3 -0.7,1.6z" class="st0"/>
  </g>
 </g>
</svg>