<svg width="89" height="89" xmlns="http://www.w3.org/2000/svg" version="1.1" xml:space="preserve">
 <title>hook</title>
 <g>
  <title>Layer 1</title>
  <path stroke="null" class="st0" d="m85.8,2.7c-3.6,-3.6 -9.4,-3.6 -13,0c-3.3,3.3 -3.5,8.4 -0.9,12l-45.9,45.9c-5.3,5.3 -13.8,5.3 -19.1,0c-5.3,-5.3 -5.3,-13.8 0,-19.1l3.2,-3.2l-0.6,1.7c-0.3,0.8 0.1,1.6 0.9,1.9c0.8,0.3 1.6,-0.1 1.9,-0.9l2.9,-8c0.2,-0.7 0,-1.4 -0.6,-1.8c-0.6,-0.4 -1.4,-0.3 -1.9,0.2l-7.9,7.9c-6.4,6.4 -6.4,16.9 0,23.3c3.2,3.2 7.4,4.8 11.7,4.8c2,0 4,-0.4 6,-1.1c-2.3,5.9 -1,12.9 3.7,17.6c3.2,3.2 7.4,4.8 11.7,4.8c4.2,0 8.4,-1.6 11.7,-4.8l7.9,-7.9c0.5,-0.5 0.6,-1.3 0.2,-1.9c-0.4,-0.6 -1.1,-0.8 -1.8,-0.6l-8,2.9c-0.8,0.3 -1.2,1.1 -0.9,1.9c0.3,0.8 1.1,1.2 1.9,0.9l1.7,-0.6l-3.2,3.2c-2.5,2.5 -5.9,4 -9.5,4c-3.6,0 -7,-1.4 -9.5,-4c-2.5,-2.5 -4,-5.9 -4,-9.5c0,-3.6 1.4,-7 4,-9.5l45.9,-45.9c1.5,1 3.3,1.5 5.1,1.5c2.4,0 4.7,-0.9 6.5,-2.7c3.5,-3.5 3.5,-9.4 -0.1,-13zm-2.1,10.9c-2.4,2.4 -6.4,2.4 -8.8,0s-2.4,-6.4 0,-8.8c1.2,-1.2 2.8,-1.8 4.4,-1.8s3.2,0.6 4.4,1.8c2.4,2.5 2.4,6.4 0,8.8z" fill="#F9F8F8" id="svg_2"/>
 </g>

</svg>