<?xml version="1.0" encoding="utf-8"?>
<!-- Generator: Adobe Illustrator 26.2.0, SVG Export Plug-In . SVG Version: 6.00 Build 0)  -->
<svg fill="#F9F8F8" version="1.1" id="Capa_1" xmlns="http://www.w3.org/2000/svg" xmlns:xlink="http://www.w3.org/1999/xlink" x="0px" y="0px"
	 viewBox="0 0 214.7 214.7" style="enable-background:new 0 0 214.7 214.7;" xml:space="preserve">
<path d="M142.9,198.8c-12,0-23.2-4.7-31.6-13.1c-6.1-6.1-10.3-13.8-12.1-22.3l-0.7-3.4l-16.4,0.9c-0.1,0-0.1,0-0.2,0
	c-1.9,0-3.4-1.5-3.5-3.3c-0.1-0.9,0.3-1.8,0.9-2.5c0.6-0.7,1.5-1.1,2.4-1.2l16.4-0.9l0.3-3.4c0.3-2.7,0.7-5.2,1.4-7.6l1.4-5.1H69.9
	l-38.6,38.6c-2.7,2.7-6.3,4.2-10.1,4.2c-3.8,0-7.4-1.5-10.1-4.2l-3-3c-5.6-5.6-5.6-14.6,0-20.2l70-70c2.7-2.7,6.3-4.2,10.1-4.2
	c1.1,0,2.2,0.1,3.3,0.4l2.2,0.5l62.2-62.2c0.7-0.7,1.5-1,2.5-1c0.9,0,1.8,0.4,2.5,1l5.8,5.8c0.7,0.7,1,1.5,1,2.5s-0.4,1.8-1,2.5
	l-62.2,62.2l0.5,2.2c0.3,1.1,0.4,2.3,0.4,3.3c0,3.8-1.5,7.4-4.2,10.1l-21.7,21.7H107l1.2-1.5c1-1.2,2-2.3,3-3.3
	c4.7-4.7,10.2-8.2,16.4-10.5l3-1.1l-0.4-3.2c0-0.4,0-0.7,0-1.1C132,96.9,140.4,90,150.2,90c0.3,0,0.6,0,0.9,0l13.7,0.6
	c1.1,0,2.2,0.1,3.4,0.1c13.1,0,26-3.4,37.4-10c0.5-0.3,1.1-0.5,1.7-0.5c1.3,0,2.4,0.7,3,1.8c0.5,0.8,0.6,1.8,0.3,2.7
	c-0.2,0.9-0.8,1.7-1.6,2.1c-12.4,7.1-26.6,10.9-40.9,10.9c-1.2,0-2.4,0-3.6-0.1L150.7,97c-0.2,0-0.4,0-0.6,0
	c-4.5,0-8.7,2.3-11.1,6.2l-3.9,6.2l7.4-0.1l0.5,0c11.9,0,23.1,4.7,31.6,13.1c6.1,6.1,10.3,13.8,12.1,22.3l0.7,3.4l16.4-0.9l0.2,0
	c1.9,0,3.4,1.5,3.5,3.3c0.1,0.9-0.3,1.8-0.9,2.5c-0.6,0.7-1.5,1.1-2.4,1.2l-16.4,0.9l-0.3,3.4c-1,10.3-5.6,20-12.9,27.2
	C166.1,194.1,154.9,198.8,142.9,198.8z M107.4,159.5l1.5,4.9c1.7,5.5,4.8,10.6,8.9,14.8c6.7,6.7,15.6,10.4,25.1,10.4
	c9.5,0,18.4-3.7,25.1-10.4c5.1-5.1,8.5-11.6,9.8-18.6l0.9-5l-23.4,1.3l-1,2.2c-0.6,1.4-1.5,2.7-2.6,3.8c-2.4,2.4-5.5,3.7-8.9,3.7
	s-6.5-1.3-8.9-3.7c-0.7-0.7-1.4-1.6-2-2.6l-1.2-2.1L107.4,159.5z M142.9,118.5c-9.5,0-18.4,3.7-25.1,10.4
	c-5.1,5.1-8.5,11.6-9.8,18.6l-0.9,5l23.4-1.3l1-2.2c0.6-1.4,1.5-2.7,2.6-3.8c2.4-2.4,5.5-3.7,8.9-3.7c3.4,0,6.5,1.3,8.9,3.7
	c0.7,0.7,1.4,1.6,2,2.6l1.2,2.1l23.4-1.3l-1.5-4.9c-1.7-5.5-4.7-10.6-8.9-14.8C161.3,122.2,152.4,118.5,142.9,118.5z"/>
</svg>
