<?xml version="1.0" encoding="utf-8"?>
<!-- Generator: Adobe Illustrator 26.2.0, SVG Export Plug-In . SVG Version: 6.00 Build 0)  -->
<svg version="1.1" id="Layer_1" xmlns="http://www.w3.org/2000/svg" xmlns:xlink="http://www.w3.org/1999/xlink" x="0px" y="0px"
	 viewBox="0 0 512 512" style="enable-background:new 0 0 512 512;" xml:space="preserve">
<style type="text/css">
	.st0{fill:#F9F8F8;}
</style>
<g>
	<path class="st0" d="M373.4,449.4c-1.4,0-3-0.2-4.8-0.6c-1.8-0.5-3.2-1.3-4.4-2.4l-0.3-0.2c-14.5-12.4-26.2-32.8-37.5-52.5
		l-1.6-2.8c-5.8-10-11.5-20.6-15.8-28.9c-1.4-2.7-2.5-5.2-3.5-7.3c-0.4-0.8-0.7-1.6-1.1-2.3l-0.1-0.3l-1.7-3.4l-0.4-1.3
		c-0.2-0.7-0.5-1.3-0.6-1.6c0-0.3-0.1-1-0.1-2.5v-0.4c0-0.5,0-1,0-1.9c0-4.1-0.2-16.5,1.9-29.5c1.3-8.6,4-20,9.8-32.7
		c3-6.4,11.1-8.6,16.8-4.5h0c4.4,3.1,6,9,3.7,13.9c-4,8.6-6.7,17.6-8.1,26.9c-1.3,8.5-1.3,14.5-1.4,20.3c0,1,0,2,0,3.1l0,3.1l1,2
		c1,2,2.3,4.8,4.2,8.3c5.2,10.1,10.2,19.4,14.9,27.6c10.2,17.9,21.7,34.3,28.2,42c2,2.3,4.8,3.7,7.9,3.7h1.2l1.2-0.3
		c1-0.2,2-0.5,2.9-0.7c2.4-0.6,4.9-1.3,8.1-1.8c6.9-1.1,13.7-1.7,20.5-1.7c3.5,0,7.1,0.2,10.6,0.5c7.1,0.6,11.9,7.6,9.9,14.4v0
		c-1.5,5.3-6.7,8.7-12.1,8.1c-3.2-0.3-6.4-0.5-9.5-0.5c-5.1,0-10.1,0.4-15.7,1.3l-0.2,0c-4.9,0.9-9.6,1.7-14.4,2.8
		c-1.2,0.3-2.3,0.6-3.4,0.9C377.2,449,375.6,449.4,373.4,449.4z M71.5,447.2c-2.1,0-4.1,0-6.1,0l-1.2,0c-7.9-0.2-14.7-0.3-20.8-1.7
		l-0.1,0c-2.3-0.5-4.6-1.2-8.4-3.8c-2.5-1.7-7-7.4-7-12.5c0-9.2,2.5-13,6.3-18.7c0.7-1.1,1.4-2.1,2.1-3.2l0.1-0.1
		c1.4-2.2,3.1-4.5,5-6.9c0.5-0.7,1-1.3,1.5-2c1.9-2.5,2.6-5.7,1.8-8.8c-0.8-3.1-2.9-5.6-5.8-6.9c-4.7-2.1-10.1-4.7-14-8.5
		c-11.8-11.4-18.3-27.8-18.3-46.2c0-24.7,12.3-46.4,23-62.6c6.5-9.8,13.9-19.1,21.3-27l0.3-0.3l1.1-1.1c0.8-0.8,1.4-1.7,1.9-2.6
		c27.8-54.9,77.7-80.5,114.8-92.3c39.3-12.6,73.8-14.5,96.3-14.8c2.8,0,5.6-1.3,7.5-3.4c11-12.1,22.6-21.7,35.5-29.3
		c1.6-0.9,2.9-2.3,3.8-3.9c9.6-17.3,27.7-28.1,47.2-28.1c15.3,0,30.1,6.7,40.4,18.3c1.9,2.1,4.5,3.3,7.3,3.4
		c24.8,1.2,45.3,9.8,58.2,16.8c8.9,4.9,16.3,10,22,15.3c1.1,1,2.2,1.9,3.2,2.8c5.2,4.4,8.3,7.1,8.3,16.6c0,5.2-0.9,9.7-3.4,16.6
		c-2.3,6.4-6.2,13.7-11.6,21.8c-9.6,14.1-25.6,27.4-44.8,37.3c-3.5,1.8-5.6,5.3-5.6,9.2c0,28,0,89.3-38.6,130.7
		c-4.9,5.3-13.4,4.7-17.5-1.1l-0.2-0.3c-3.1-4.3-2.7-10.1,0.8-14.1c22.4-25.7,34.2-69.5,34.2-128.1v-7.9l7-2.8
		c19.6-7.7,35-19.7,45.9-35.7c4.2-6.2,7.1-11,8.9-15.5l0.3-0.5c2.2-4.2,1.4-9.3-2.1-12.5c-4.1-3.8-10.5-8.3-17-11.9l-0.1-0.1
		c-8-4.4-17.9-8-29.3-10.8l-1.2-0.3l-1.3,0c-5.5,0-10,4.3-10.3,9.8c-1.7,28.5-25.1,50.9-53.3,50.9c-21.3,0-40.7-13.1-49.3-33.5
		c-1.9-4.5-6.8-7.2-11.9-6c-2,0.4-3.7,1.5-5.1,2.9c-0.5,0.5-0.9,0.9-1.4,1.4c-2.6,2.5-5.5,5.4-8.3,9.2l-3.6,4.7h-5.6
		c-19.5,0-58.2,1.9-97.7,14.5C124.6,180.2,89.1,208.9,71,249l-0.1,0.2l-0.6,1.6l-1.6,1.6l-0.2,0.3c-1.1,1.3-10,11.6-19.4,25.6
		c-9.5,14.3-19.7,34.8-19.7,49.5c0,11.7,4.4,23.5,11.1,29.9c3.7,3.5,9.1,7.6,18,7.6c0.7,0,1.4,0,2.1-0.1c3.9-0.3,7.7,1.1,10.6,3.8
		l4.9,4.6c5.1,4.7,5.5,12.6,0.9,17.8c-2.2,2.5-4.4,5.2-6.7,8c-1.8,2.3-3.4,4.3-4.9,6.4l-1.6,2c-2.4,3.1-2.8,7.3-1.1,10.9
		c1.8,3.5,5.3,5.8,9.3,5.8c14.3,0,33.5-0.9,57.1-2l9.5-0.5l2.4-0.1c0,0,0.1,0,0.1,0c12.3-2.3,28.5-9.2,43.8-18.1
		c22.9-13.3,35-29.5,35-46.6c0-24.9-15.2-36.3-30-44.1c-12.1-6.4-28.5-11.1-45.5-13.2c-5.6-0.7-9.9-5.5-9.9-11.2v-0.2
		c0-6.7,5.8-12,12.5-11.3c16.7,1.9,35.9,6.3,53.5,15.6c26.3,13.9,42,38,42,64.5c0,16.2-6.6,31.4-19.5,45.3c-2.8,3-3.5,7.3-1.9,11.1
		s5.3,6.2,9.3,6.3c16.7,0.3,31.5,1.1,44.8,2.4c6.5,0.6,11.1,6.6,10.1,13l-0.1,0.5c-0.9,5.9-6.3,10.1-12.3,9.5
		c-17.1-1.7-37-2.5-60.2-2.5c-27.5,0-55.4,1.2-81.3,2.4l-2.2,0.1C106.9,446.3,87.5,447.2,71.5,447.2z M359.5,85.1
		c-8.6,0-16.9,3.6-22.9,10c-5.9,6.3-9,14.9-8.5,23.4c1,15.9,13.3,28.1,29.1,29.1c0.7,0,1.3,0.1,2,0.1c8.6,0,16.9-3.6,22.9-10
		c5.9-6.3,9-14.9,8.5-23.4c-1-15.9-13.3-28.1-29.1-29.1C360.8,85.2,360.1,85.1,359.5,85.1z"/>
</g>
</svg>
