<?xml version="1.0" encoding="utf-8"?>
<svg fill="#414042" version="1.1" id="Layer_1" xmlns="http://www.w3.org/2000/svg" xmlns:xlink="http://www.w3.org/1999/xlink" x="0px" y="0px"
	 viewBox="0 0 512 512" style="enable-background:new 0 0 512 512;" xml:space="preserve">
<g>
	<path d="M362.7,52.6c-24,0-45.1,13.5-56,33.3c-7.3,4.3-21.8,13.5-38,31.3c-19.9,0.3-57.1,1.8-99.3,15.3
		c-45.2,14.4-93.6,43.7-120.7,97.3l-1.3,1.3c-1.1,1.2-11.4,11.8-22.7,28.7C12.9,277.6,0,300.7,0,327.9c0,19.6,6.8,39.3,21.3,53.3
		c4.8,4.7,10.9,7.9,17.3,10.7c-2.5,3.3-5.2,6.6-7.3,10c-4.9,7.7-10,13.1-10,27.3c0,8.9,6.5,17.4,11.3,20.7s8.3,4.5,12,5.3
		c7.4,1.7,15.2,1.8,24,2c17.8,0.3,40.8-0.8,66.7-2c51.8-2.5,115-4.8,160,2.7l6.7-42.7c-21.3-3.5-45-4.9-68.7-5.3
		c13.1-13.9,22.7-31.3,22.7-52.7c0-34.1-22-59.9-47.3-73.3c-25.3-13.4-54.8-18-80.7-18v42.7c20.1,0,44.2,4.6,60.7,13.3
		s24.7,18.1,24.7,35.3c0,13.9-11.3,27.1-30,38c-18.7,10.9-43.6,16.7-51.3,16.7v0.7c-23.1,1.1-42.8,2-57.3,2c2.3-3,4.3-5.7,6.7-8.7
		c10.5-12.9,21.3-24,21.3-24l-31.3-29.3l-0.7,1.3c-10.7,3.2-15.4,1.1-20-3.3s-8-13.5-8-22.7c0-11.3,8.4-29.6,18-44
		c9.6-14.4,18.7-24.7,18.7-24.7l2.7-2.7l1.3-3.3c19.8-44,59.2-67.2,99.3-80c40.2-12.8,79.8-14,94.7-14H288l6.7-8.7
		c2.9-4,6.1-6.8,9.3-10c9.7,23.3,32.2,40,58.7,40c33.9,0,61.5-27.2,63.3-60.7c9.8,2.4,19.4,5.7,27.3,10c6.8,3.8,12.3,7.9,15.3,10.7
		l-0.7,1.3c-1.4,3.9-4.3,8.5-8,14c-7.4,10.9-19.7,23.5-41.3,32l-13.3,5.3v14.7c0,29.9-2.7,103.5-44,132.7l24.7,34.7
		c59.9-42.3,60.7-118.7,60.7-154.7c22.3-11.5,38.8-26.2,48.7-40.7c5.8-8.7,10.1-16.8,12.7-24s4-13,4-20c0-16.5-8.2-20.7-14.7-26.7
		s-14.7-11.6-24-16.7c-17.3-9.4-39.2-16.9-62.7-18C398.9,61.1,381.8,52.6,362.7,52.6z M362.7,95.2c12,0,21.3,9.3,21.3,21.3
		s-9.3,21.3-21.3,21.3s-21.3-9.3-21.3-21.3S350.7,95.2,362.7,95.2z M320,252.6c-14.3,20.3-20.8,40.8-23.3,57.3
		c-2.6,16.6-1.9,31.9-2,32.7v0.7c0,5.6,1,6.3,1.3,7.3l0.7,2l2,4c1.3,2.8,2.7,6,4.7,10c4.1,8,9.8,18.5,16,29.3
		c12.4,21.6,24.8,43.9,41.3,58c2.5,2.3,5.4,3.8,8.7,4.7c9.8,2.3,14.2-0.3,18.7-1.3s8.9-1.8,14-2.7c10.1-1.6,22.5-2.3,40,2.7l12-41.3
		c-23.9-6.7-44.4-5.6-58.7-3.3c-5.2,0.8-8.6,1.9-12,2.7c-5.9-7-17.3-23.1-27.3-40.7c-5.8-10.2-11-20.1-14.7-27.3
		c-1.8-3.4-3.1-6.1-4-8v-0.7c0.1-6.7-0.1-12.8,1.3-22c1.8-11.8,6.2-25.4,16-39.3L320,252.6z"/>
</g>
</svg>
