<svg width="93.99999999999999" height="70" xmlns="http://www.w3.org/2000/svg" xml:space="preserve" version="1.1">

 <g>
  <title>Layer 1</title>
  <path id="svg_3" fill="#F9F8F8" d="m92.02502,2.1c-1.4,-1.4 -3.2,-2.1 -5.2,-2.1c-2,0 -3.8,0.8 -5.2,2.1s-2.1,3.2 -2.1,5.2c0,1.4 0.4,2.8 1.2,4l-51.5,51.5c-2.9,2.9 -6.7,4.5 -10.8,4.5c-4.1,0 -7.9,-1.6 -10.8,-4.5c-2.9,-2.9 -4.5,-6.7 -4.5,-10.8s1.6,-7.9 4.5,-10.8l4.1,-4.1l-1,2.6c-0.3,0.8 0.1,1.6 0.9,1.9c0.8,0.3 1.6,-0.1 1.9,-0.9l3.2,-9c0.2,-0.7 0,-1.4 -0.6,-1.8c-0.6,-0.4 -1.4,-0.3 -1.9,0.2l-8.9,8.9c-7.1,7.1 -7.1,18.7 0,25.8c3.6,3.6 8.2,5.3 12.9,5.3c4.7,0 9.4,-1.8 12.9,-5.3l51.5,-51.5c1.2,0.8 2.6,1.2 4,1.2c1.9,0 3.8,-0.7 5.2,-2.1c3.1,-2.8 3.1,-7.5 0.2,-10.3zm-2.1,8.2c-1.7,1.7 -4.4,1.7 -6.1,0c-1.7,-1.7 -1.7,-4.4 0,-6.1c0.8,-0.8 2,-1.3 3.1,-1.3c1.1,0 2.2,0.4 3.1,1.3c1.6,1.7 1.6,4.5 -0.1,6.1z" class="st0"/>
 </g>
</svg>