<?xml version="1.0" standalone="no"?>
<svg fill="#414042" version="1.0" xmlns="http://www.w3.org/2000/svg"
 width="1600.000000pt" height="1300.000000pt" viewBox="0 0 1600.000000 832.000000"
 preserveAspectRatio="xMidYMid meet">

<g transform="translate(0.000000,832.000000) scale(0.100000,-0.100000)"
 stroke="none">
<path d="M14460 7804 c-41 -2 -354 -8 -695 -14 -1065 -19 -1346 -27 -1810 -54
-550 -31 -705 -42 -905 -67 -85 -10 -175 -19 -200 -19 -41 0 -154 -14 -700
-85 -107 -14 -226 -28 -265 -31 -38 -4 -106 -12 -150 -20 -44 -8 -114 -19
-155 -25 -232 -33 -800 -148 -1050 -211 -63 -16 -131 -31 -150 -34 -19 -2 -72
-16 -116 -29 -45 -14 -88 -25 -95 -25 -8 0 -57 -14 -109 -30 -52 -17 -106 -32
-120 -34 -24 -3 -90 -24 -280 -86 -47 -16 -173 -56 -280 -90 -107 -34 -232
-74 -277 -90 -46 -16 -83 -28 -83 -25 0 2 -37 -9 -82 -26 -46 -17 -87 -32 -93
-33 -5 -1 -44 -14 -85 -28 -255 -90 -400 -139 -416 -142 -11 -2 -50 -16 -89
-31 -38 -15 -77 -28 -85 -30 -8 -2 -64 -25 -125 -50 -60 -26 -128 -53 -150
-60 -22 -8 -89 -35 -150 -60 -60 -26 -128 -53 -150 -60 -61 -21 -294 -122
-355 -154 -19 -10 -46 -22 -60 -26 -14 -4 -73 -31 -133 -61 -59 -29 -108 -53
-110 -52 -3 1 -255 -125 -417 -209 -316 -164 -389 -204 -469 -257 -90 -60 -97
-62 -166 -44 -54 15 -241 -3 -301 -28 -61 -25 -130 -85 -158 -135 -29 -51 -33
-99 -21 -235 7 -78 5 -99 -13 -155 -11 -35 -24 -79 -27 -98 -15 -71 -78 -164
-190 -280 -101 -104 -449 -450 -590 -588 -112 -108 -464 -408 -620 -528 -49
-38 -111 -87 -136 -110 -25 -22 -59 -47 -75 -55 -16 -8 -42 -23 -57 -33 -32
-22 -104 -50 -196 -77 -79 -24 -308 -36 -406 -22 -66 9 -97 20 -170 59 -78 41
-104 97 -112 239 -5 92 -3 108 22 190 16 49 34 94 40 101 7 6 17 24 24 40 6
16 25 37 41 46 28 17 29 17 41 -5 7 -13 22 -49 33 -82 12 -32 25 -59 31 -60
12 -1 85 144 121 239 14 39 42 99 61 135 37 67 41 73 188 228 48 51 85 95 82
98 -14 14 -360 -162 -410 -209 -6 -7 -32 -25 -57 -41 -70 -45 -190 -138 -190
-147 0 -5 -5 -9 -11 -9 -13 0 -172 -159 -211 -210 -42 -56 -85 -142 -103 -208
-14 -48 -16 -87 -12 -179 4 -111 7 -122 41 -188 20 -39 60 -96 88 -126 56 -58
160 -122 224 -138 21 -5 80 -21 129 -34 173 -48 245 -60 305 -49 30 6 57 8 59
6 10 -10 -42 -81 -148 -203 -172 -198 -195 -236 -172 -279 14 -27 95 -46 139
-33 49 15 124 63 184 121 52 50 219 189 247 205 19 11 7 -118 -21 -235 -15
-60 -21 -120 -22 -205 0 -110 2 -125 27 -178 15 -32 27 -61 27 -66 0 -16 70
-115 113 -160 37 -38 165 -131 181 -131 4 0 25 -9 49 -19 112 -50 303 -46 430
9 152 67 220 109 312 197 263 251 365 359 408 434 34 57 35 79 5 78 -24 -1
-53 -16 -255 -130 -224 -127 -247 -135 -398 -149 -90 -8 -175 -33 -175 -51 0
-4 17 -21 38 -38 75 -63 76 -64 50 -74 -13 -4 -78 -8 -145 -8 -152 -1 -205 14
-266 76 -69 69 -106 208 -107 407 -1 118 1 128 40 248 22 68 47 134 54 145 7
11 17 34 23 50 6 17 39 73 74 125 75 114 294 334 499 503 74 61 140 117 145
123 6 7 57 47 115 90 115 85 123 92 149 114 9 8 68 54 132 101 63 47 121 92
129 100 25 23 163 125 190 139 13 7 30 19 37 26 25 25 150 45 271 42 109 -1
124 1 212 31 182 62 281 147 332 285 10 28 26 66 34 84 9 18 21 66 28 105 12
71 12 72 41 71 74 -2 247 -25 315 -42 41 -11 95 -22 120 -26 25 -3 86 -17 135
-31 50 -14 114 -30 143 -35 29 -5 94 -18 145 -29 51 -11 110 -22 132 -25 22
-4 114 -18 205 -32 91 -13 255 -38 365 -55 110 -16 288 -43 396 -59 108 -17
214 -30 235 -30 22 0 140 -13 264 -29 272 -36 445 -56 650 -76 85 -9 261 -27
390 -40 129 -14 271 -27 315 -30 44 -3 206 -14 360 -25 508 -37 968 -51 1850
-56 838 -5 850 -5 848 -25 -2 -11 -20 -34 -40 -52 -57 -48 -96 -90 -112 -121
-13 -23 -13 -34 -2 -74 31 -109 31 -109 -64 -158 -27 -14 -65 -42 -83 -62 -54
-60 -132 -182 -169 -262 -41 -89 -47 -97 -143 -168 -41 -31 -82 -63 -90 -72
-8 -10 -62 -52 -120 -95 -58 -43 -112 -85 -121 -94 -9 -9 -52 -41 -95 -71 -42
-30 -105 -76 -138 -102 -34 -26 -98 -72 -142 -103 -45 -30 -87 -62 -94 -70 -7
-8 -16 -15 -21 -15 -4 0 -54 -32 -111 -72 -57 -39 -125 -86 -153 -104 -27 -18
-55 -37 -60 -42 -6 -5 -50 -32 -97 -61 -47 -28 -91 -58 -98 -66 -7 -8 -16 -15
-21 -15 -5 0 -41 -21 -81 -47 -65 -42 -92 -57 -188 -108 -98 -52 -277 -82
-475 -78 -180 3 -342 70 -457 190 -49 50 -81 124 -73 166 23 119 28 129 109
214 69 74 83 84 109 81 30 -3 43 -18 78 -86 7 -12 15 -22 19 -22 10 0 57 71
65 98 4 13 22 57 41 99 41 90 102 157 204 225 74 50 170 135 170 150 0 5 11
25 24 46 25 39 42 102 27 102 -15 0 -168 -69 -316 -141 -284 -139 -536 -305
-688 -452 -136 -132 -182 -346 -112 -522 23 -58 42 -83 105 -145 42 -41 94
-84 116 -95 21 -11 59 -32 83 -47 25 -16 54 -28 66 -28 12 0 25 -4 30 -9 21
-19 231 -79 334 -95 l73 -11 -63 -56 c-35 -30 -107 -84 -159 -119 -102 -69
-190 -154 -190 -183 0 -29 19 -57 45 -67 46 -17 178 34 418 163 48 26 111 63
140 82 28 19 55 35 60 35 14 0 -6 -104 -34 -175 -70 -176 -81 -235 -82 -430
-1 -173 0 -183 26 -255 15 -41 30 -85 33 -98 7 -35 67 -138 102 -177 66 -72
187 -111 311 -102 134 11 343 86 454 164 59 42 178 137 220 176 15 15 60 54
100 88 80 67 117 108 117 127 0 20 -62 14 -157 -17 -48 -16 -137 -41 -198 -56
-102 -25 -120 -27 -240 -21 -74 4 -136 3 -144 -3 -11 -7 -6 -18 23 -56 20 -26
36 -51 36 -55 0 -27 -225 -40 -286 -17 -53 20 -93 77 -109 154 -17 78 -20 259
-5 330 5 26 14 71 19 98 13 69 71 221 105 274 41 64 188 214 270 274 39 29 78
58 86 64 8 7 49 37 91 65 42 29 120 85 174 123 53 39 104 75 113 80 9 6 21 15
27 21 5 6 44 34 85 62 41 29 134 94 205 146 72 53 168 121 215 153 47 31 90
61 95 66 13 11 242 170 468 324 108 75 119 78 252 79 192 1 222 13 356 151
109 112 169 206 169 266 0 54 21 84 75 107 24 10 48 27 54 38 22 41 50 167 62
275 16 141 2 225 -43 271 -16 16 -27 30 -25 32 12 13 129 24 246 24 161 0 382
11 1006 50 253 16 516 32 585 35 69 3 220 14 335 25 116 10 253 22 305 25 52
4 129 11 170 16 114 14 115 15 124 240 5 101 7 198 7 214 -2 40 37 361 49 406
5 19 12 51 14 70 3 18 18 70 34 114 l28 80 40 2 c104 7 242 26 269 37 16 7 44
28 62 46 36 37 93 139 93 166 0 11 7 39 16 63 29 85 37 190 20 266 -22 96 -49
144 -123 221 -61 64 -73 87 -54 99 5 3 13 20 16 38 27 124 242 549 333 657 49
59 170 245 213 327 74 143 46 234 -101 331 -100 66 -154 74 -570 76 -201 2
-399 2 -440 0z m387 -1699 c33 -23 93 -157 93 -208 0 -50 -49 -131 -102 -168
-18 -13 -39 -29 -46 -36 -17 -17 -58 -17 -65 0 -10 27 51 366 74 410 12 21 19
21 46 2z m-10864 -1261 c65 -22 74 -36 51 -80 -68 -127 -228 -231 -403 -261
-104 -17 -134 -13 -157 23 -16 23 -16 29 0 84 9 33 16 69 16 80 0 11 18 40 40
64 31 34 55 48 108 65 130 42 266 52 345 25z m7290 -1222 c41 -45 60 -167 36
-229 -16 -44 -59 -83 -127 -115 -76 -36 -135 -46 -158 -27 -13 10 -15 25 -11
66 7 68 42 140 109 228 70 92 116 116 151 77z"/>
</g>
</svg>
