<svg width="107" height="100" xmlns="http://www.w3.org/2000/svg" xml:space="preserve" version="1.1">
 <title>Drawing</title>

 <g>
  <title>Layer 1</title>
  <path id="svg_9" fill="#414042" d="m96.25,0.60001c0,0 0,0 0,0c-0.1,0 -0.1,0 0,0c-0.1,-0.1 -0.2,-0.1 -0.2,-0.2c-0.1,-0.1 -0.2,-0.1 -0.3,-0.2c-0.1,0 -0.2,0 -0.3,-0.1c-0.1,0 -0.2,-0.1 -0.3,-0.1c-0.1,0 -0.2,0 -0.3,0c-0.1,0 -0.2,0 -0.3,0.1c-0.1,0 -0.2,0.1 -0.2,0.2c-0.1,0.1 -0.2,0.1 -0.2,0.2c0,0 0,0 0,0c0,0 0,0 0,0l-62.3,62.3l-1.5,-1.5c-0.6,-0.6 -1.5,-0.6 -2.1,0l-27.8,27.8c-0.6,0.6 -0.6,1.5 0,2.1l5.2,5.2c0.3,0.3 0.7,0.4 1.1,0.4s0.8,-0.1 1.1,-0.4l27.7,-27.7c0.6,-0.6 0.6,-1.5 0,-2.1l-1.5,-1.5l1.6,-1.6c0.3,1.2 0.8,2.3 1.8,3.3c1.2,1.2 2.9,1.9 4.6,1.9c1.8,0 3.4,-0.7 4.6,-1.9c0,0 0,0 0,0s0,0 0,0c1.2,-1.2 1.9,-2.9 1.9,-4.6c0,-1.8 -0.7,-3.4 -1.9,-4.6c-0.9,-0.9 -2.1,-1.5 -3.3,-1.8l5.1,-5.1l1,1c0.3,0.3 0.7,0.4 1.1,0.4s0.8,-0.1 1.1,-0.4c0.6,-0.6 0.6,-1.5 0,-2.1l-1,-1l15.7,-15.7l1,1c0.3,0.3 0.7,0.4 1.1,0.4s0.8,-0.1 1.1,-0.4c0.6,-0.6 0.6,-1.5 0,-2.1l-1,-1l15.7,-15.7l1,1c0.3,0.3 0.7,0.4 1.1,0.4s0.8,-0.1 1.1,-0.4c0.6,-0.6 0.6,-1.5 0,-2.1l-1,-1l9,-9c4,4.8 17.2,23.1 -0.4,40.2c-10.2,9.8 -15.1,18.8 -14.5,26.6c0.4,5.6 3.4,9.4 6.3,11.9c-1.3,1.7 -1.2,4 0.3,5.6c0.4,0.4 0.9,0.7 1.5,0.9l-0.4,6.4c-0.1,1 0.2,2 0.8,2.8c0.6,0.8 1.6,1.4 2.6,1.4c0.1,0 0.1,0 0.2,0c0.9,0 1.9,-0.4 2.6,-1.1c0.7,-0.7 1.1,-1.7 1.2,-2.7l0.1,-1.3c0.1,-0.8 -0.6,-1.5 -1.4,-1.6c-0.8,0 -1.5,0.6 -1.6,1.4l-0.1,1.4c0,0.3 -0.1,0.6 -0.3,0.8c-0.1,0.1 -0.3,0.2 -0.5,0.2c-0.2,0 -0.3,-0.1 -0.4,-0.3c-0.2,-0.2 -0.2,-0.5 -0.2,-0.8l0.4,-6.6c0.5,-0.2 1.1,-0.5 1.5,-1c1.6,-1.6 1.6,-4.3 0,-6c-1,-1 -2.3,-1.3 -3.5,-1.2c-2.7,-2 -5.7,-5.4 -6.1,-10.5c-0.5,-6.9 4.1,-15.1 13.6,-24.3c21.8,-21.4 -0.7,-45.3 -0.9,-45.6zm-89.6,92.6l-3.1,-3.1l25.6,-25.6l3.1,3.1l-25.6,25.6zm35.2,-34.7c1,0 1.9,0.4 2.5,1c0.7,0.7 1,1.6 1,2.5c0,1 -0.4,1.9 -1,2.5c-1.4,1.4 -3.7,1.3 -5.1,0c-0.7,-0.7 -1,-1.6 -1,-2.5c0,-1 0.4,-1.9 1,-2.5c0.8,-0.6 1.7,-1 2.6,-1zm48.7,27.5c-0.5,0.5 -1.3,0.5 -1.7,0s-0.5,-1.3 0,-1.7c0.2,-0.2 0.6,-0.4 0.9,-0.4s0.6,0.1 0.9,0.4c0.4,0.4 0.4,1.2 -0.1,1.7z" class="st0"/>
 </g>
</svg>