<?xml version="1.0" encoding="utf-8"?>
<!-- Generator: Adobe Illustrator 26.2.0, SVG Export Plug-In . SVG Version: 6.00 Build 0)  -->
<svg fill="#F9F8F8" version="1.1" id="Layer_1" xmlns="http://www.w3.org/2000/svg" xmlns:xlink="http://www.w3.org/1999/xlink" x="0px" y="0px"
	 viewBox="0 0 512 512" style="enable-background:new 0 0 512 512;" xml:space="preserve">
<path d="M403.6,24.9c-15.7-0.3-32.3,6.3-42.9,10.4l-44.2,24c-4.4,2.4-3.5,9,1.4,10.1l31.6,7.2c3.9,0.9,7.4-2.6,6.5-6.6l-2.8-11.5
	c32.6-18.9,57-17.6,68.8-11.1c6,3.3,8.8,7.6,9.5,11.9c0.6,4.3-0.6,9.2-6.1,14.7l-72.7,72.7c-3.5,3.5-3.3,9,0.2,12.4c0,0,0,0,0.1,0.1
	c0,0,0,0,0.1,0.1c3.4,3.5,9,3.6,12.4,0.2L438,86.7c5.5-5.5,10.4-6.8,14.7-6.1c4.3,0.6,8.6,3.4,11.9,9.5c6.5,11.8,7.9,36.2-11.1,68.8
	l-11.5-2.8c-3.9-0.9-7.5,2.6-6.6,6.5l7.2,31.6c1.1,4.9,7.7,5.8,10.1,1.4l27.7-51.1c7.8-17.5,10.3-44.4-0.1-63.1
	c-5.5-10-14.5-16.9-24.9-18.5c-1.3-0.2-2.6-0.3-3.9-0.3c-0.7,0-1.3,0-2,0c0.1-2,0-4-0.3-5.9c-1.6-10.4-8.5-19.4-18.5-24.9
	C423.2,27.5,414,25.1,403.6,24.9L403.6,24.9z M319.3,166c-8.1,0.1-18.2,1.6-29.5,4.5c-25.7,6.6-57.7,20.1-90.2,36.8
	c-64.9,33.3-132.5,79.8-159.3,106.6c-18.5,18.5-18.5,42.3-10.3,67.1c8.3,24.8,25.5,49,38.7,62.2s37.4,30.4,62.2,38.7
	c24.8,8.3,48.6,8.2,67.1-10.3c26.8-26.8,73.3-94.3,106.6-159.3c16.7-32.5,30.2-64.5,36.8-90.2c3.3-12.9,4.8-24.2,4.4-32.8
	c-0.4-8.6-2.6-14.2-5.8-17.4s-8.7-5.4-17.4-5.8C321.5,166,320.4,166,319.3,166L319.3,166z M306.9,189.7
	C306.9,189.7,306.9,189.7,306.9,189.7c4.5,0.1,8.3,1.6,11.1,4.3c7.8,7.8,4.7,23.7-7.1,35.5c0,0,0,0,0,0
	c-11.8,11.8-27.7,14.9-35.5,7.1c0,0,0,0,0,0c-7.8-7.8-4.7-23.7,7.1-35.5c0,0,0,0,0,0C289.7,193.8,299,189.5,306.9,189.7z"/>
</svg>
