<svg width="106.00000000000001" height="86" xmlns="http://www.w3.org/2000/svg" xml:space="preserve" version="1.1">
 <title>tackle-box</title>

 <g>
  <title>Layer 1</title>
  <path id="svg_4" fill="#414042" d="m105.00002,38.8l-1.3,0l0,-10.3c0,-5 -4.1,-9.1 -9.1,-9.1l-15.7,0l0,-10.6c0,-4.9 -4,-8.8 -8.8,-8.8l-32.3,0c-4.9,0 -8.8,4 -8.8,8.8l0,10.6l-17.1,0c-5,0 -9.1,4.1 -9.1,9.1l0,10.3l-1.3,0c-0.8,0 -1.5,0.7 -1.5,1.5l0,8.3c0,0.8 0.7,1.5 1.5,1.5l1.3,0l0,27.4c0,4.7 3.8,8.4 8.4,8.4l84,0c4.7,0 8.4,-3.8 8.4,-8.4l0,-27.4l1.3,0c0.8,0 1.5,-0.7 1.5,-1.5l0,-8.3c0.1,-0.8 -0.6,-1.5 -1.4,-1.5zm-1.5,8.3l-1.3,0l-14.6,0l0,-5.3l14.6,0l1.3,0l0,5.3zm-100.5,0l0,-5.3l1.3,0l16.2,0l0,5.3l-16.2,0l-1.3,0zm20.5,1.5c0,0 0,0 0,0c0,0 0,0 0,0l0,-8.3c0,0 0,0 0,0s0,0 0,0l0,-1.6l5.5,0l0,10.7l-5.5,0l0,-0.8zm8.5,-6.8l44,0l0,5.3l-44,0l0,-5.3zm47,-1.5c0,0 0,0 0,0c0,0 0,0 0,0l0,-1.6l5.5,0l0,10.7l-5.5,0l0,-9.1zm-47,-31.5c0,-3.2 2.6,-5.8 5.8,-5.8l32.3,0c3.2,0 5.8,2.6 5.8,5.8l0,10.6l-43.9,0l0,-10.6zm-26.2,19.7c0,-3.4 2.7,-6.1 6.1,-6.1l18.6,0l46.9,0l17.2,0c3.4,0 6.1,2.7 6.1,6.1l0,10.3l-13.1,0l0,-1.6c0,-0.8 -0.7,-1.5 -1.5,-1.5l-8.5,0c-0.8,0 -1.5,0.7 -1.5,1.5l0,1.6l-44,0l0,-1.6c0,-0.8 -0.7,-1.5 -1.5,-1.5l-8.5,0c-0.8,0 -1.5,0.7 -1.5,1.5l0,1.6l-14.7,0l0,-10.3l-0.1,0zm94.9,48.9c0,3 -2.4,5.4 -5.4,5.4l-84,0c-3,0 -5.4,-2.4 -5.4,-5.4l0,-27.4l14.7,0l0,0.9c0,0.8 0.7,1.5 1.5,1.5l8.5,0c0.8,0 1.5,-0.7 1.5,-1.5l0,-0.9l44,0l0,0.9c0,0.8 0.7,1.5 1.5,1.5l8.5,0c0.8,0 1.5,-0.7 1.5,-1.5l0,-0.9l13.1,0l0,27.4z" class="st0"/>
 </g>
</svg>