<svg width="81" height="108.99999999999999" xmlns="http://www.w3.org/2000/svg" xml:space="preserve" version="1.1">
 <title>vest</title>

 <g>
  <title>Layer 1</title>
  <g id="svg_14">
   <path id="svg_15" fill="#414042" d="m15.69998,63.79999l15.3,0c0.8,0 1.5,-0.7 1.5,-1.5l0,-21.4c0,-0.8 -0.7,-1.5 -1.5,-1.5l-15.3,0c-0.8,0 -1.5,0.7 -1.5,1.5l0,21.4c0,0.8 0.7,1.5 1.5,1.5zm1.5,-3l0,-3.3l12.3,0l0,3.3l-12.3,0zm12.3,-18.5l0,12.1l-12.3,0l0,-12.1l12.3,0z" class="st0"/>
   <ellipse id="svg_16" fill="#414042" ry="2.5" rx="2.3" cy="50.29999" cx="23.29998" class="st0"/>
   <path id="svg_17" fill="#414042" d="m33.99998,80.69999l-13,0l-13,0c-0.8,0 -1.5,0.7 -1.5,1.5l0,16.8c0,0.8 0.7,1.5 1.5,1.5l13,0l13,0c0.8,0 1.5,-0.7 1.5,-1.5l0,-16.8c0,-0.8 -0.6,-1.5 -1.5,-1.5zm-1.5,10.5l-10,0l0,-7.5l10,0l0,7.5zm-13,-7.5l0,7.5l-10,0l0,-7.5l10,0zm-9.9,10.5l10,0l0,3.3l-10,0l0,-3.3zm12.9,3.3l0,-3.3l10,0l0,3.3l-10,0z" class="st0"/>
   <path id="svg_18" fill="#414042" d="m80.49998,44.79999c-14.9,-14.1 -10.1,-42.8 -10,-43.1c0.1,-0.4 0,-0.9 -0.3,-1.2c-0.3,-0.3 -0.7,-0.5 -1.1,-0.5l-12.9,0c-0.8,0 -1.5,0.6 -1.5,1.4c-0.6,13.9 -4.4,19.9 -7.5,22.4c-3.2,2.6 -6.3,2.1 -6.4,2.1c0,0 -0.1,0 -0.1,0c-0.1,0 -0.1,0 -0.2,0c-0.1,0 -0.1,0 -0.2,0c0,0 -0.1,0 -0.1,0c0,0 -3.1,0.5 -6.3,-2.1c-3.1,-2.5 -7,-8.4 -7.6,-22.4c0,-0.8 -0.7,-1.4 -1.5,-1.4l-12.9,0c-0.4,0 -0.9,0.2 -1.1,0.5c-0.3,0.3 -0.4,0.8 -0.3,1.2c0.1,0.3 4.9,29 -10,43.1c-0.3,0.3 -0.5,0.7 -0.5,1.1l0,61.8c0,0.8 0.7,1.5 1.5,1.5l39,0l39,0c0.8,0 1.5,-0.7 1.5,-1.5l0,-61.8c0,-0.4 -0.2,-0.8 -0.5,-1.1zm-77.5,1.8c13.5,-13.4 11.6,-36.9 10.7,-43.6l9.7,0c0.7,11.4 3.6,19.2 8.6,23.2c2.7,2.1 5.3,2.7 7,2.7l0,77.3l-36,0l0,-59.6zm75,59.6l-36,0l0,-77.3c1.7,-0.1 4.3,-0.6 7,-2.7c5,-4 7.9,-11.8 8.6,-23.2l9.7,0c-0.9,6.7 -2.8,30.2 10.7,43.6l0,59.6z" class="st0"/>
   <path id="svg_19" fill="#414042" d="m65.19998,39.29999l-15.3,0c-0.8,0 -1.5,0.7 -1.5,1.5l0,21.5c0,0.8 0.7,1.5 1.5,1.5l15.3,0c0.8,0 1.5,-0.7 1.5,-1.5l0,-21.4c0,-0.9 -0.6,-1.6 -1.5,-1.6zm-1.5,3l0,12.1l-12.3,0l0,-12.1l12.3,0zm-12.2,18.5l0,-3.3l12.3,0l0,3.3l-12.3,0z" class="st0"/>
   <ellipse id="svg_20" fill="#414042" ry="2.5" rx="2.3" cy="50.29999" cx="57.59998" class="st0"/>
   <path id="svg_21" fill="#414042" d="m46.89998,80.69999c-0.8,0 -1.5,0.7 -1.5,1.5l0,16.8c0,0.8 0.7,1.5 1.5,1.5l13,0l13,0c0.8,0 1.5,-0.7 1.5,-1.5l0,-16.8c0,-0.8 -0.7,-1.5 -1.5,-1.5l-13,0l-13,0zm11.5,3l0,7.5l-10,0l0,-7.5l10,0zm-10,10.5l10,0l0,3.3l-10,0l0,-3.3zm13,3.3l0,-3.3l10,0l0,3.3l-10,0zm10,-6.3l-10,0l0,-7.5l10,0l0,7.5z" class="st0"/>
  </g>
 </g>
</svg>