<?xml version='1.0' encoding='iso-8859-1'?>
<!DOCTYPE svg PUBLIC '-//W3C//DTD SVG 1.1//EN' 'http://www.w3.org/Graphics/SVG/1.1/DTD/svg11.dtd'>
<svg fill="#F9F8F8" version="1.1" xmlns="http://www.w3.org/2000/svg" viewBox="0 0 512 512" xmlns:xlink="http://www.w3.org/1999/xlink" enable-background="new 0 0 512 512">
  <path d="M511.413,475.717l-80-287.999c-1.922-6.93-8.227-11.718-15.414-11.718H272v-34.274c32-7.156,48-31.994,48-61.726  c0-35.289-28.711-64-64-64s-64,28.711-64,64c0,29.732,16,54.57,48,61.726V176H96.001c-7.188,0-13.492,4.789-15.414,11.718  l-80,287.999c-1.344,4.82-0.352,9.985,2.68,13.962C6.29,493.663,11.001,496,16.001,496h479.998c5,0,9.711-2.337,12.734-6.321  C511.765,485.702,512.757,480.537,511.413,475.717z M224,80c0-17.648,14.352-32,32-32s32,14.352,32,32s-14.352,32-32,32  S224,97.648,224,80z M37.048,464l71.117-256h295.671l71.117,256H37.048z"/>
</svg>
